<?xml version="1.0" encoding="UTF-8"?>
<svg id="Layer_1" xmlns="http://www.w3.org/2000/svg" version="1.1" viewBox="0 0 100 100">
  <!-- Generator: Adobe Illustrator 29.1.0, SVG Export Plug-In . SVG Version: 2.1.0 Build 142)  -->
  <defs>
    <style>
      .st0 {
        fill: #1185fe;
      }

      .st1 {
        opacity: .1;
      }
    </style>
  </defs>
  <path class="st0" d="M31.59,25.23c7.45,5.6,15.47,16.94,18.41,23.02,2.94-6.08,10.96-17.43,18.41-23.02,5.38-4.04,14.09-7.16,14.09,2.78,0,1.98-1.14,16.67-1.81,19.06-2.32,8.29-10.78,10.41-18.3,9.13,13.14,2.24,16.49,9.65,9.27,17.06-13.71,14.07-19.71-3.53-21.25-8.04-.28-.83-.42-1.22-.42-.88,0-.33-.14.06-.42.88-1.53,4.51-7.53,22.12-21.25,8.04-7.22-7.41-3.88-14.82,9.27-17.06-7.52,1.28-15.98-.83-18.3-9.13-.67-2.39-1.81-17.08-1.81-19.06,0-9.93,8.71-6.81,14.09-2.78h0Z"/>
  <g class="st1">
    <path d="M50,.75c27.16,0,49.25,22.09,49.25,49.25s-22.09,49.25-49.25,49.25S.75,77.16.75,50,22.84.75,50,.75M50,0C22.39,0,0,22.39,0,50s22.39,50,50,50,50-22.39,50-50S77.61,0,50,0h0Z"/>
  </g>
</svg>