<?xml version="1.0" encoding="UTF-8"?>
<svg id="Layer_1" xmlns="http://www.w3.org/2000/svg" version="1.1" viewBox="0 0 100 100">
  <!-- Generator: Adobe Illustrator 29.1.0, SVG Export Plug-In . SVG Version: 2.1.0 Build 142)  -->
  <defs>
    <style>
      .st0 {
        fill: #fff;
      }

      .st1 {
        opacity: .35;
      }
    </style>
  </defs>
  <path class="st0" d="M35.84,30.95c5.73,4.3,11.9,13.03,14.16,17.71,2.26-4.68,8.43-13.41,14.16-17.71,4.13-3.11,10.84-5.51,10.84,2.14,0,1.52-.88,12.82-1.39,14.66-1.78,6.38-8.29,8-14.08,7.02,10.11,1.72,12.69,7.42,7.13,13.12-10.55,10.83-15.17-2.72-16.35-6.19-.22-.63-.32-.94-.32-.68,0-.26-.1.04-.32.68-1.18,3.47-5.8,17.02-16.35,6.19-5.56-5.7-2.98-11.4,7.13-13.12-5.79.99-12.29-.64-14.08-7.02-.52-1.83-1.39-13.14-1.39-14.66,0-7.64,6.7-5.24,10.84-2.14h0Z"/>
  <g class="st1">
    <path class="st0" d="M50,4c25.36,0,46,20.64,46,46s-20.64,46-46,46S4,75.36,4,50,24.64,4,50,4M50,0C22.39,0,0,22.39,0,50s22.39,50,50,50,50-22.39,50-50S77.61,0,50,0h0Z"/>
  </g>
</svg>