<?xml version="1.0" encoding="UTF-8"?>
<svg id="Layer_1" xmlns="http://www.w3.org/2000/svg" version="1.1" viewBox="0 0 1024 1024">
  <!-- Generator: Adobe Illustrator 29.1.0, SVG Export Plug-In . SVG Version: 2.1.0 Build 142)  -->
  <defs>
    <style>
      .st0 {
        fill: #b5c5d1;
      }

      .st1 {
        fill: #ad8440;
      }

      .st2 {
        fill: #67aec7;
      }

      .st3 {
        fill: #c0af83;
      }

      .st4 {
        fill: #444125;
      }

      .st5 {
        fill: #5f897c;
      }
    </style>
  </defs>
  <path class="st5" d="M7.5,90.19c1.92-7.37,50.22-2.86,58.47-1.97,89.53,9.65,198.78,35.81,284.72,63.28,28.4,9.08,118.62,38.04,130.12,63.88,16.28,36.58,17.19,67.02,43.77,103.98,3.86,5.37,8.01,10.9,13.66,14.68,11.19-3.35,25.26-8.92,36.88-9.74,24.96-1.74,20.88,6.85,44.31-9.69,24.34-17.17,27.28-29.44,44.1-48.9,13.05-15.1,39.93-22.56,57.69-30.31,5.52-2.41,10.92-7.56,16.27-9.73,57.55-23.28,88.14,33.09,50.18,76.1-1.66,1.88-1.3,1.76-4.17,1.4,13.91-22.53,30.68-50.14,4.49-71.99s-54.34,2.6-77.62,13.36c-17.84,8.25-29.61,5.64-44.85,23.15-6.03,6.94-9.59,17.72-14.99,24.01-3.75,4.36-44.5,36.65-48.33,37.73-2.9.82-20.08-2.61-27.07-2.14-13.51.91-25.93,6.98-38.72,10.45-7.33-.99-36.74-54.93-40.76-64.23-18.74-43.3-3.98-59.49-50.94-83.06-95.33-47.83-269.17-86.7-375.79-99.21-19.57-2.3-42.05-5.04-61.41-1.09Z"/>
  <path class="st5" d="M980.44,716.78c-26.29-57.01-55.4-117.6-92.69-168.34-.47-.64-1.59-2.54-2.02-3.21-2.47-3.82-9.19-12.93-12.19-16.23-11-12.13-22.59-29.81-34.15-35.21-16.14-7.53-48.29-6.45-67.14-9.86-24.35-4.4-57.3-14.33-75.27-31.75-1.06-2.34,3.95-18.06,4.49-22.52.69-5.72-.56-16.07.05-19.88,2.79-17.42,49.75-61.42,59.98-78.6-12.57,10.85-63.3,64.07-64.94,76.55-.49,3.73,1.79,11.73.98,16.99-1.46,9.55-6.82,19.76-5.84,29.79,25.79,20.35,63.27,29.17,95.43,34.53,13.14,2.19,35.78,1.12,47.36,5.64,12.16,4.75,25.74,24.04,37.35,37.57,3.42,3.98,8.26,9.22,10.53,12.39,0,0,0,0,0,0,33.99,56.57,53.78,85.72,93.52,176.28q.68,1.91,2.61,5.26c1.38,2.3,2.78,3.06,3,0-.67-6.15,0-4.67-1.06-9.41Z"/>
  <path class="st5" d="M783.5,304.19c-5.95,9.53-13.17,18.63-22,26l22-26Z"/>
  <path class="st4" d="M1014.5,865.19c-1.28-9.58-2.82-19.18-4.79-28.68-2.43-14.42-4.96-29.18-5.38-30.69-.52-1.83-19.73-72.07-20.83-75.63-.27-.88-1.41-2.2-2-4,0,0-6.48-10.16-6.72-10.72-15.87-35.81-26.39-62.77-43.61-95.04-14.36-26.9-31.32-53.05-49.66-77.23-1.55-2.15-2.29-3.26-2.29-3.26-3.18-5.3-17.82-22.19-26.96-33.47-10.36-10.76-15.52-13.64-30.22-15.93-35.31-2.62-71.04-6.31-103.77-22-7.03-3.37-19.55-9.89-24.95-14.97-.34-.32.99-7.94,1.24-9.31,4.02-12.23,6.5-22.99,3.94-35.58,4.34-10.24,10.69-19.66,19.05-28.28l43.95-49.2v-1c8.07-8.02,15.31-16.83,22-26,.15-.24-.15-.76,0-1,5.86-4.1,10.19-12.67,13.3-19.3,21.74-46.46-19.95-77.62-61.8-54.71-15.14,9.97-32,16.39-48.89,22.29-16.49,6.35-26.85,19.98-34.51,35.43-14.02,16.02-31.61,29.82-49.92,40.66-22.94-4.34-42.98.33-65.3,8.3-26.97-29.82-43.93-69.29-52.67-108.42-4.42-16.85-17.87-27.67-33.08-35.33-46.23-23.29-95.74-39.35-145.57-53.57-76.44-21.81-154.37-38.21-233.11-48.27-16.63-2.12-47.49-5.98-62.84-1.06-.58.19-1.1.56-1.6.99v1c1.04,1.35,2.37,2.35,4,3,.18.09,2.56.49,4,1h1c12.85,4.19,28.78,6.76,41,11,1.09.38,2.49,1.47,4,2,74.91,26.41,149.1,77.46,201.51,136.99,6.26,7.11,18.48,28.01,24.34,31.66,9.52,5.94,50.85,13.69,66.35,19.65,25.51,9.8,54.2,25.27,75.27,42.73,3.22,2.67,21.84,17.99,20.1,21.01-18.86,7.14-38.49,18.93-53.76,33.2-3.52,3.29-6.32,5.9-9.81,10.24-2.35,2.92,15-.47,15-.47,0,0-4.01,7.88-2.35,9.77,2.72,3.09,16.35-1.77,16.35-1.77,0,0-5.03,11.95-1.99,12,4.92.08,9.1-2.38,11.95-2.79,11.97-1.7,19.66,3.19,33.04.79.47,3.39-1.57,4.18-3.99,5.5-5.77,3.17-25.8,6.47-34.52,9.48-46.75,16.1-81.89,28.63-98.2,79.8-3.57,11.22-7.6,44.22-12.44,51.56-6.22,9.41-32.24,21.87-41.87,33.13-3.3,3.86-26.4,35.59-26.75,38.27-.23,1.71-.77,3.69.25,5.28,5.93,4.52,11.43-.49,17.52-1.02-12.31,24.72-4.82,33.1,19,18-5.91,45.49,27.69-3.21,31,0-34.81,72.39-78.21,142.15-138.95,195.53-18.84,16.56-45.31,37.35-66.04,51.46-12.36,8.57-37.96,25.94-38,26-2.48,1.93-1.77,4,.7,3.76,0,0,48.71-13.35,50.3-13.76,87.64-22.7,152.98-64.2,214-129,10.61-10.07,20.94-20.4,31-31,3.38-3.45,6.51-7.59,10-11l3-3c.83-.8,2.15-1.21,3-2l9-8c.36-.3.64-.7,1-1,2.03-2.98,8.66-7.68,9-8,1.77-1.65,5.75-4.86,6-5,2.45-1.92,7.76-5.85,8-6,13.23-11.39,26.89-21.82,41.91-30.27,0,0-10.13,8.88-13.2,11.85-4.38,4.23-14.65,15.86-15.71,17.42,0,0-4.66,6.34-5,7-2.22,5.02-4.88,9.69-8,14-3.74,6.61-18.42,23.72-14.51,30.99,6.11,6,13.18-3.67,19.5-3.99,2.96,3.41-18.31,42.87,21.01,14.99v14.5c9,8.07,19.8-16.58,24.56-22.44,13.23-16.33,26.02-30.62,36.53-49.47,13.81,2.45,49.52-26.18,56.49-26.57,7.6-.43,21.72,16.07,38.67,12.72,12.8-2.53,55.94-47.98,61.15-60.84,3.68-9.08,2.74-19.33,5.66-28.34,1.89-5.84,6.16-11.69,8.26-18.74,2.06-6.92,11.8-48.95,14.32-49.6,7.42,2.08,14.48,8.91,20.55,13.86,30.03,24.52,65.66,64.96,86.66,97.6,5.23,8.12,17.47,35.43,21.66,39.34,5.21,4.85,43.15,22.1,53.51,27.99,22.11,12.58,60.6,40.95,68,47,22.47,18.37,54.57,52.59,65.42,68.08,1.96,2.8,16.27,31.51,19.57,27.91-.11-3.42-1.26-6.69-1.99-9.99ZM979.39,754.92c-31.79-79.76-71.02-158.83-123.59-225.12-4.27-5.38-8.69-10.68-13.56-15.48-9.88-9.74-14.05-8.95-26.78-6.11-42.64.64-87.47-7.3-121.84-32.71-.28-2.45-1.32-4.22-3.12-5.32,1.63-1.12,2.15-3.3,1.57-6.54,7.28,5.12,48.13,23.56,56.28,27.17l65.4,8.45c11.41-.89,17.08-1.22,26.37,6.58,31.24,26.24,53.17,63.64,73.09,99.08,20.56,37.98,39.95,76.44,58.14,115.38l3.69,11.86c.12-.59,1.34-1.55,2.51-2.51,2.65,10.88,5.63,21.4,8.94,31.53.06.66-.03,1.34,0,2,.22.5.19,6.16.88,12.43-2.33-5.57-4.74-12.11-8-20.7Z"/>
  <path class="st1" d="M603.5,342.19c1.73,4.28,2.21,9.22,4.08,13.53-.29,6.31-36.66,28.86-43.05,34-17.47,14.07-34.73,28.11-52.93,42.07-15.43,11.83-30.44,25.93-46.09,36.4l.99-8.99-4.52.97c-11.14,33.87-22.37,67.39-46.96,94.03-15.29,16.56-63.91,49.96-86.77,41.75-13.58-4.87-11.12-32.89-9.74-43.76.16-2.14,1.34-2.02,3.11-1.61,26.59-55.66,80.72-91.62,134.87-117.35l1.02-2.05,9.94-2.07.06-2.92h-4.01c.74-12.26,17.13-11.39,25.16-14.35,12.28-4.52,60.51-22.32,68.19-28.81,2.27-1.91,3.11-2.53,2.64-5.85-40.35,12.35-79.88,39.63-122.99,37.98,18.82-16.36,2.52-19.7-10-28.99l.37-1.3c46.54-16.57,93.97-31.73,142.28-45.46,10.92-3.55,21.86-2.33,32.91.37l1.44,2.39Z"/>
  <path class="st5" d="M836.5,710.19c-3.01-1.09-13.79-5.29-13.99-8.47,17.1-57.28,21.68-120.69,12.92-179.88l2.92-1.53c75.32,94.36,131.2,204.96,162.14,321.89l-42.99-48,2.46-.61c5.73,3.69,10.88,8.01,15.44,12.98-27.74-39.53-67.62-73.88-112.74-92.78-7.7-3.23-18.26-7.25-26.16-3.59Z"/>
  <path class="st5" d="M152.5,145.19c-26.28-12.64-53.28-25.3-76.99-42,106.85,19.92,220.07,44.07,319.96,87.53,2.99,1.3,51.93,22.5,48.03,25.46-40.72,5.26-87.55,15.42-124.03,34.47-6.19,3.23-28.31,20.46-32.74,18.31-.6-.29-6.86-9.59-6.21-11.77l2.25-.34c6.81,9.8,13.37,11.31,6.96-3.46-23.1-53.27-84.53-87.39-135.34-109.61l-1.88,1.41Z"/>
  <path class="st5" d="M682.5,540.19c2.51-18.63,7.34-36.98,7.01-56,43.5,23.68,88.36,38.16,138.53,30.97,10.38,60.07,4.15,122.51-9.54,181.52l-2.47,2.5c-6.77-4.55-7.42-12.46-10.97-18.04-4.79-7.55-9.64-15.54-14.55-22.95.1-.45.22-.9.43-1.29.15-.27.33-.5.58-.6,3.24-1.35-12.57-31.24-15.7-36.33-19.93-32.51-56.92-64.59-91.73-78l-1.58-1.78Z"/>
  <path class="st3" d="M573.86,588.54c-4.32,5.73-57.97,50.04-61.35,47.64-11.18-26.29-39.72-53.1-63.7-68.81-4.56-2.99-24.53-11.07-24.36-14.63,7.22-8.51,13.31-17.7,18.56-27.54,3.16-5.91,13.55-34.23,15.02-35.98,2.29-2.73,3.58-2.19,6.69-1.81,6.91.85,34.13,17.1,41.3,21.73,27.64,17.87,58.57,44.99,71.5,75.47-.43,2.89-2.73,2.66-3.68,3.92Z"/>
  <path class="st3" d="M598.87,480.82c7.37,8.14,29.83,36.71,28.6,46.78-.7,5.7-39.34,51.17-43.43,50.66-27.72-43.87-69.84-77.64-117.58-97.62-1.02-4.29,47.57-44.98,53.53-45.28,22.17-1.13,64.33,29.39,78.88,45.46Z"/>
  <path class="st5" d="M453.5,353.19c-10.04-7.74-19.62-18.75-30.09-26.41-37.15-27.19-83.45-42.48-127.91-52.6-.31-4.84,3.3-3.81,5-4.99,14.06,6.38,29.21,11.17,45.45,14.36,37.1,12.02,78.11,33.99,105.85,61.84,1.49,1.49,3.93,6.3,1.7,7.79l1.06-1.81c13.82,2.33,9.52-3.43,3.76-11.11-32.67-43.61-94.69-66.22-147.39-72.75-2.65.7-4.46.25-5.43-1.32l1.11-4.88c17.74-3.79,34.37-14.43,52.11-20.39,11.54-3.88,88.82-23.85,94.85-19.29,9.86,44.24,27.51,87.37,55.86,123.09l-53.96,11.98c-1.63-.63-1.74-3.32-1.97-3.5Z"/>
  <path class="st3" d="M504.13,643.82l-66.08,44.43c-16.85-27.35-40.97-52.43-71.44-64.17l-.08-2.28c7.68-11.65,39.65-61.35,53.36-60.62,19.05,1.02,86.89,59.86,86.66,77.54l-2.42,5.1Z"/>
  <path class="st1" d="M474.5,672.19c49.9-35.38,103.99-69.08,140.5-119.03l2.51.54c-13.44,40.79-25.91,106.37-60.1,134.9-15.1,12.6-56.71,34.28-76.18,30.35-7.35-1.48-14.64-13.86-17.74-20.76-.43-1.73.59-2.67,3.07-2.81,2.94-7.81,5.84-14.95,8.68-21.42l-.75-1.77Z"/>
  <path class="st1" d="M730.5,239.19l1.85.86,18.8-7.23c30.48-7.99,52.84,14.13,39.41,43.98l-.06,3.38c-1.68,2.91-4.2,6.25-4,8-7.76,17.96-27.54,33.62-39.52,48.99l-1.84-3.72c30.65-35.02-16.05-69.07-49.82-47.95l-75.45,61.57c-2.69.19-4.57-9.17-5.37-10.89l-.55-2.14,58.15-47.81c-4.88-2.1-6.75-5.12-5.6-9.05,19.94-26.58,16.46-17.58,45.52-25.89,3.18-.91,13.55-9.51,18.48-12.11Z"/>
  <path class="st3" d="M385.63,730.06c-13.89-21.84-31.35-38.51-56.03-47.5l32.62-53.22c9.26-1.99,47.91,31.81,54.79,39.85,4.97,5.81,18.15,20.41,12.54,27.56l-43.92,33.32Z"/>
  <path class="st1" d="M335.26,622.42c12.15-13.88,27.07-29.64,44.22-33.76,1.36-.33,3.37-1.62,3.01,1-56.15,71.94-85.32,160.37-149.96,226.04-26.22,26.65-58.74,53.14-90.02,73.48-1.94-.58-1.94-1.91,0-4,1.29-1.04,5-4,5-4,1.39-1.14,8-6.45,14-12,70.93-62.42,109.54-120.32,151-204,5.37-10.84,12.13-29.66,22.76-42.77Z"/>
  <path class="st3" d="M621.5,424.19c4.25,29.41,6.01,57.19,11,86,.09.94.18,1.19.29,1.95.26,2.14-1.73,3.68-3.29,2.05-3.97-4.5-5.15-11.76-8.57-16.93-22.35-33.79-54.45-56.51-93.42-67.58l41.73-33.3c9.27-1.81,50.85,25.19,52.26,27.81Z"/>
  <path class="st1" d="M412.75,181.88c12.57,5.18,52.24,20.07,58.6,30.96,4.12,7.04,8.77,33.95,12.46,44.54,10.09,28.93,27.64,59.33,47.49,82.45l-1.49,3.4-13.33.56c-25.14-27.16-39.72-62.9-51.47-97.61-2.53-7.47-3.34-22.23-6.73-28.27-3.65-6.51-38.49-22.96-47.1-26.9-81.61-37.37-170.2-58.79-257.92-76.83l-1.76-3.98c44.63,7.22,88.6,17.4,132.2,29.28,43.24,11.78,88.44,25.68,129.04,42.4Z"/>
  <path class="st3" d="M356.14,759.82c-2.2,2.14-18.81,20.6-20.62,19.37-5.35-16.69-23.53-32.1-41.01-34.01l31.72-55.84c11.04-2.29,51.61,33.37,53.82,43.82,1.61,7.6-3.73,5.55-8.02,10.06-5.31,5.59-10.36,11.21-15.89,16.61Z"/>
  <path class="st1" d="M690.5,470.19c4.82-.62,9.79.67,14.89,3.86,22.28,11.52,42.64,20.37,67.31,23.58,12.73,1.66,27.75,3.33,39.8-.44,10.46.84,13.53-3.13,23.91,3.59,51.17,33.16,110.71,165.36,138.09,221.41.12.25,1.24,2.97,2.78,6.34,2.63,5.77,8.59,25.79,9.22,32.66l2,19.47-9.99-22.48c-19.05-48.43-40.71-96.67-66.82-141.69-10.26-17.68-65.37-105.84-81.79-108.3-3.86-.58-10.57,2-14.86,2.02-39.99.15-79.17-5.47-113.82-27.25-8.11-5.09-9.74-3.37-10.72-12.78Z"/>
  <path class="st1" d="M652.5,473.19c2.89.52,2.43-.08,3.56-1.92,12.01-19.55,18.77-48.36,33.93-66.1l1.48,1.47-5.97,13.54,8.99-6c1.06,15.79-6.87,30.25-8.85,45.65-1.31,10.14.09,22.92-1.17,32.83-4.01,31.44-8.92,64.42-20.47,93.5l-2.5-2.48v-23c0-8.22-16.21-32.71-14.8-46.73,1.92-19.13,32.69-65.23,37.32-85.75.38-1.69.71-3.28.47-5.02-19.13,23.3-23.6,56.77-40.99,79.99l-2.01-16.99,2.12.58c2.5-4.06,4.68-8.55,6.57-12.99l2.31-.58Z"/>
  <path class="st3" d="M690.13,342.56c7.99,8.78,14.37,21.36,16.39,33.07l-22.5,28.59c-11.96-24.52-34.96-42.38-60.51-51.04,6.55-4.38,29.05-27.82,34.53-28.95,9.2-1.89,26.27,11.93,32.1,18.33Z"/>
  <path class="st3" d="M314.13,761.56c4.64,3.67,18.24,17.4,16.97,23.66-.6,2.97-37.42,40.84-40.95,39.91-4.24-4.08-6.78-11.35-10.66-15.42-3.56-3.73-20.18-14.3-19.86-16.79l30.91-42.24c9.28.36,16.7,5.43,23.59,10.89Z"/>
  <path class="st1" d="M312.5,587.19c1.18,2.65,9.56,13.02,12.27,14.29,3.54,1.66,16.62,2.71,16.75,4.22-8.24,10.32-36.83,58.31-51.84,52.23-.28-.11-1.44-3.31-4.03-4.39-17.02-7.16-18.22-4.43-20.15-24.35l1.54-4.51c13.23-14.5,26.11-28.18,43.13-38.29l2.34.81Z"/>
  <path class="st3" d="M457.5,431.19l1.97,2.47c-54.66,26.51-110.05,62.17-136.94,119.06l-4.04-.53c.34-2.69.72-5.28,1-8,0,0,2.88-15.92,5-21,14.41-34.54,34.66-59.13,65.37-71.18,9.66-3.46,34.09-12.27,45.63-15.82,1.31-.4,21.33-5.01,22-5Z"/>
  <path class="st3" d="M624.03,360.18c17.02,5.08,52.46,30.93,55,49.01,1.51,10.72-17.71,34.78-21.05,45.98-3.42-9.02-18.95-20.05-22-26.98-7.17-16.35-4.15-47.44-13.06-64.98l1.1-3.03Z"/>
  <path class="st2" d="M305.5,266.19c10.56-3.09,38.86,5.15,50.79,8.71,27.46,8.21,58.11,21.46,80.22,39.78,5.49,4.55,33.66,31.07,28.87,38.39-1.82.78-11.14.54-11.88.12-.4-.23-2.14-5.89-4.49-8.01-26.89-24.14-57.39-42.61-91.29-55.71-16.06-6.2-38.66-9.54-52.51-15.48-2.6-1.11-3.84-2-4.7-4.8,2.15-1.49,1.44-1.96,5-3Z"/>
  <path class="st1" d="M460.5,704.19c1.73,3.14,10.35,16.4,12.48,18.02,4.13,3.13,13.15,2.33,13.55,4.49-2.05,8.66-25.41,42.87-32.54,43.48-20.76-4.53-23.33-2.93-32.49-22.99l-.86-2.02c12.52-13.81,25.05-27.62,37.58-41.44l2.28.46Z"/>
  <path class="st3" d="M254.24,801.36c9.28-2.29,29.47,20.98,31.1,30.1l-45.2,32.65c-5.85-11.12-11.75-20.58-22.63-27.4,7.09-4.31,31.76-34.12,36.73-35.35Z"/>
  <path class="st2" d="M152.5,145.19l-.47-5.01c6.93,3.57,14.59,5.91,21.51,9.47,45.54,23.45,104.41,58.82,120.68,110.32,1.97,6.24.61,2.97-4.16,7.26-1.57-.25-66.38-69.66-68.55-72.05-.5-.55-11.79-9.84-12-10,0,0-51.04-37.36-56-40-.27-.13-.73.13-1,0Z"/>
  <path class="st3" d="M728.15,349.83c-.95,1.45-16.41,19.09-17.63,18.35-5.21-24.25-23.26-38.72-42.97-51.42,13.49-12.54,15.74-20.73,34.99-12.12,14.91,6.67,36.78,28.23,25.6,45.18Z"/>
  <path class="st2" d="M682.5,540.19c3.83-1.21,11.81,3.1,15.32,5.18,45.44,26.93,81.91,61.58,97.6,113.42l-4.93-.6c-.15-.23-8.78-11.69-9-12l-4-6c-.42-.58-9-12-9-12-4.44-5.57-16-20-16-20-15.48-17.17-39.34-39.39-58-53-1.43-1.31-4.74-3.86-5-4,0,0-2.76-1.85-3-2-1.71-1.12-3.37-2.12-5-3-.13-.23.11-.68,0-1-.22-1.66.96-4.67,1-5Z"/>
  <path class="st3" d="M426.5,386.19c-2.04-.25-4.04-.28-6-1.01-5.6-8.58,50.05-25.44,54.79-26.69,17.1-4.54,39.77-5.74,55.47-10.53,8.52-2.6,17.08-9.53,27.74-12.26,14.16-3.63,29.47-5.52,43.34.41,1.24,1.23.93,4.3,1.66,6.09-6.36-1.53-15.04-3.16-21.49-3.09-13.33.16-90.84,26.46-110.75,32.35-9.25,2.74-37.32,15.64-44.77,14.73Z"/>
  <path class="st2" d="M836.5,710.19c-.36-3.88-.13-2.46,2.42-3.07,21.47-5.14,81.5,36.84,98.06,52.09,6.31,5.81,44.93,46.8,42.06,51.99l-3.78,2.82c-11.09-8.93-16.65-23.32-83.61-69.59-20.96-14.48-53.51-33.65-55.15-34.24Z"/>
  <path class="st3" d="M174.51,875.16c-.86-2.35,35.09-32.62,37.56-33,8.73-1.34,19.5,16.7,22.45,23.61.32,6.99-38.11,20.6-44.64,24.39l-15.37-15Z"/>
  <path class="st3" d="M736.52,335.18c-4.7-19.09-21.19-32.38-38.35-40.02l-.18-1.99c31.95-23.73,72.98,13.18,38.53,42.01Z"/>
  <polygon class="st3" points="619.5 415.18 576.5 390.67 608.18 365.3 619.5 415.18"/>
  <path class="st3" d="M112.51,918.18l55.71-40.85c3.74-.74,18.7,12.67,11.55,17.62-5.88,4.07-40.61,16.02-49.29,18.7-5.82,1.8-12,3.25-17.96,4.53Z"/>
  <path class="st3" d="M720.04,475.49c60.29,21.41,79.03,16.44,92.46,21.7.36,4.26-.06,2.4-2.49,2.96-13.7,3.17-43.77-.61-57.78-4.19-21.28-5.44-41.04-18.62-61.73-25.77-.18-1.73-1.75-8.81,1.5-9.01,8.77,6.27,18.1,10.09,28.04,14.32Z"/>
  <path class="st3" d="M312.5,587.19l-20.89,14.61-26.11,27.39c-3.21-33.22,22.27-33.19,40.66-53.83l4.88.81c1.42,1.58.83,9.59,1.47,11.02Z"/>
  <path class="st3" d="M460.5,704.19l-39,43c-.21-.46-2.4-.73-2.96-3.52-3.16-15.49,25.57-39.36,36.64-48.35l2.77.92c1.87,1.61,2.03,7,2.55,7.95Z"/>
  <path class="st3" d="M666.5,277.19c2.66,4.09,1.78,6.4,7.95,6.06l-.14,3.77-59.81,49.18c-.21-.45-6.66-1.17-3.47-7.98,1.12-2.39,35.43-26,41.48-32.51,5.28-5.68,9.34-12.3,13.99-18.51Z"/>
  <path class="st3" d="M790.5,280.19c-4.58-1.2,1.79-12.6,2.04-15.46,1.83-21.43-12.82-33.17-33.5-31.51-10.16.81-19.9,7.85-26.46,8.56-3.17.34-1.97.39-2.07-2.59,7.74-4.08,20.6-9.63,28-11,31.63-5.85,48.3,23.79,32,52Z"/>
  <path class="st3" d="M474.5,672.19c2.81-.6,2.33,1.61,1.92,3.39-1.71,7.47-6.79,13.54-7.69,21.33l-5.22,1.27c-.45-1.01-.66-1.97-1-3-.86-2.57-2-6-2.81-8-2.17-5.37.57-5.15,2.81-8,3.04-2.86,8.73-4.68,12-7Z"/>
  <path class="st0" d="M423.22,766.32l11.18,7.2c.18,2.53-12.64,13.46-16.33,13.65-4.16-1.73,2.22-19.99,5.15-20.85Z"/>
  <path class="st0" d="M400.51,767.18c-1.33-1.4,9.51-23.62,14-21.59l4.54,10.56-18.54,11.03Z"/>
  <path class="st0" d="M417.51,416.18c-1.89-1.78,26.84-35.76,20.56-8.92l-20.56,8.92Z"/>
  <path class="st0" d="M426.23,392.46l.84,3.75c-4.2,9.91-11.88,10.52-21.56,10.97-1.27-1.06,14.81-20.24,20.72-14.72Z"/>
  <path class="st0" d="M259.49,623.19c4.98,13.38.59,14.66-15.33,17.54l1.79-3.57c3.56-5.18,6.1-13.34,13.54-13.98Z"/>
  <path class="st0" d="M270.5,654.19c.63,1.28,1.26,2.98-.66,5.31-1.8,2.32-5.22,3.42-7.67,4.15-.97.29-3.9.8-4.5.38l3.82-15.84c1.79-1.1,7.29,3.57,9,6Z"/>
  <path class="st1" d="M142.5,885.19c-.15,1.28.21,2.76,0,4-.74,4.32-23.58,18.14-29.01,19.49,8.12-9.63,19.39-15.72,29.01-23.49Z"/>
  <path class="st0" d="M281.51,674.18l1-15c15.85.9,11.62,13.36-1,15Z"/>
  <path class="st0" d="M440.51,790.18l3.43-15.12,8.11,2.1c.98,1.79-9.56,15.29-11.54,13.03Z"/>
  <path class="st0" d="M415.37,391.07l-17.86,8.11c1.45-5.76,9.93-8.29,14.27-11.23l2.73-.28.85,3.41Z"/>
  <path class="st3" d="M637.5,441.69c-.06,2.5.11,5.01,0,7.5-.4,9.96,2.88,21.05,4,31,.1,1.99-.1,4.01,0,6,.03.54,1.2,6.48,1.98,6.99,1.75-6.11,7.35-14.43,9.02-19.99,3.57-11.86-4.09-27.49-15.01-31.5Z"/>
  <path class="st1" d="M658.51,607.18l.1-14.35,3.38-1.63c3.13,1.34.94,15.35-3.48,15.98Z"/>
  <path class="st3" d="M789.35,282.08c.92,2.97-2.12,4.43-2.85,6.11-6.15-.37,2.58-5.72,2.85-6.11Z"/>
</svg>