<?xml version="1.0" encoding="UTF-8"?>
<svg id="Layer_1" xmlns="http://www.w3.org/2000/svg" version="1.1" viewBox="0 0 100 100">
  <!-- Generator: Adobe Illustrator 29.1.0, SVG Export Plug-In . SVG Version: 2.1.0 Build 142)  -->
  <defs>
    <style>
      .st0 {
        fill-rule: evenodd;
      }

      .st0, .st1 {
        fill: #fff;
      }

      .st2 {
        opacity: .35;
      }
    </style>
  </defs>
  <path class="st0" d="M50.01,25.43c-13.83,0-25.01,11.27-25.01,25.2,0,11.14,7.16,20.56,17.1,23.9,1.24.25,1.7-.54,1.7-1.21,0-.58-.04-2.58-.04-4.67-6.96,1.5-8.41-3-8.41-3-1.12-2.92-2.77-3.67-2.77-3.67-2.28-1.54.16-1.54.16-1.54,2.52.16,3.85,2.58,3.85,2.58,2.23,3.84,5.84,2.75,7.29,2.08.2-1.63.87-2.75,1.57-3.38-5.55-.58-11.39-2.75-11.39-12.43,0-2.75.99-5.01,2.57-6.76-.25-.62-1.12-3.21.25-6.67,0,0,2.11-.67,6.87,2.58,2.04-.55,4.14-.83,6.25-.83,2.11,0,4.26.29,6.25.83,4.76-3.25,6.87-2.58,6.87-2.58,1.36,3.46.49,6.05.25,6.67,1.61,1.75,2.57,4,2.57,6.76,0,9.68-5.84,11.81-11.43,12.43.91.79,1.7,2.29,1.7,4.67,0,3.38-.04,6.09-.04,6.92,0,.67.45,1.46,1.7,1.21,9.94-3.34,17.1-12.77,17.1-23.91.04-13.94-11.18-25.2-24.97-25.2h-.01Z"/>
  <g class="st2">
    <path class="st1" d="M50,4c25.36,0,46,20.64,46,46s-20.64,46-46,46S4,75.36,4,50,24.64,4,50,4M50,0C22.39,0,0,22.39,0,50s22.39,50,50,50,50-22.39,50-50S77.61,0,50,0h0Z"/>
  </g>
</svg>