<?xml version="1.0" encoding="UTF-8"?>
<svg id="Layer_1" xmlns="http://www.w3.org/2000/svg" version="1.1" viewBox="0 0 100 100">
  <!-- Generator: Adobe Illustrator 29.1.0, SVG Export Plug-In . SVG Version: 2.1.0 Build 142)  -->
  <defs>
    <style>
      .st0 {
        fill: #24292f;
        fill-rule: evenodd;
      }

      .st1 {
        opacity: .1;
      }
    </style>
  </defs>
  <path class="st0" d="M50.03,18.05c-17.98,0-32.52,14.65-32.52,32.76,0,14.48,9.31,26.73,22.24,31.07,1.62.32,2.21-.7,2.21-1.57,0-.76-.05-3.36-.05-6.08-9.05,1.96-10.93-3.91-10.93-3.91-1.46-3.79-3.61-4.77-3.61-4.77-2.96-2.01.21-2.01.21-2.01,3.28.21,5.01,3.36,5.01,3.36,2.9,4.99,7.59,3.58,9.47,2.71.27-2.12,1.13-3.58,2.05-4.39-7.21-.76-14.8-3.58-14.8-16.16,0-3.58,1.29-6.51,3.34-8.79-.32-.81-1.46-4.18.32-8.67,0,0,2.75-.87,8.93,3.36,2.65-.71,5.39-1.08,8.13-1.09,2.75,0,5.54.38,8.13,1.09,6.19-4.23,8.93-3.36,8.93-3.36,1.77,4.5.64,7.86.32,8.67,2.1,2.28,3.34,5.2,3.34,8.79,0,12.58-7.59,15.35-14.86,16.16,1.18,1.03,2.21,2.98,2.21,6.08,0,4.39-.05,7.92-.05,9,0,.87.59,1.9,2.21,1.57,12.92-4.34,22.24-16.6,22.24-31.08.05-18.12-14.54-32.76-32.46-32.76h-.02Z"/>
  <g class="st1">
    <path d="M50,.75c27.16,0,49.25,22.09,49.25,49.25s-22.09,49.25-49.25,49.25S.75,77.16.75,50,22.84.75,50,.75M50,0C22.39,0,0,22.39,0,50s22.39,50,50,50,50-22.39,50-50S77.61,0,50,0h0Z"/>
  </g>
</svg>