<?xml version="1.0" encoding="UTF-8"?>
<svg id="Layer_1" xmlns="http://www.w3.org/2000/svg" version="1.1" viewBox="0 0 85 85">
  <!-- Generator: Adobe Illustrator 29.1.0, SVG Export Plug-In . SVG Version: 2.1.0 Build 142)  -->
  <defs>
    <style>
      .st0 {
        fill: #b5c5d1;
      }

      .st1 {
        fill: #ad8440;
      }

      .st2 {
        fill: #67aec7;
      }

      .st3 {
        fill: #fff;
      }

      .st4 {
        fill: #c0af83;
      }

      .st5 {
        fill: #444125;
      }

      .st6 {
        fill: #5f897c;
      }
    </style>
  </defs>
  <path class="st3" d="M42.5,0c23.47,0,42.5,19.03,42.5,42.5s-19.03,42.5-42.5,42.5S0,65.97,0,42.5,19.03,0,42.5,0Z"/>
  <g>
    <path class="st6" d="M17.92,19.28c.1-.39,2.65-.15,3.08-.1,4.72.51,10.47,1.89,15,3.33,1.5.48,6.25,2,6.86,3.37.86,1.93.91,3.53,2.31,5.48.2.28.42.57.72.77.59-.18,1.33-.47,1.94-.51,1.32-.09,1.1.36,2.33-.51s1.44-1.55,2.32-2.58c.69-.8,2.1-1.19,3.04-1.6.29-.13.58-.4.86-.51,3.03-1.23,4.64,1.74,2.64,4.01-.09.1-.07.09-.22.07.73-1.19,1.62-2.64.24-3.79s-2.86.14-4.09.7c-.94.43-1.56.3-2.36,1.22-.32.37-.51.93-.79,1.26-.2.23-2.34,1.93-2.55,1.99-.15.04-1.06-.14-1.43-.11-.71.05-1.37.37-2.04.55-.39-.05-1.94-2.89-2.15-3.38-.99-2.28-.21-3.13-2.68-4.38-5.02-2.52-14.18-4.57-19.8-5.23-1.03-.12-2.22-.27-3.24-.06Z"/>
    <path class="st6" d="M69.18,52.29c-1.39-3-2.92-6.2-4.88-8.87-.02-.03-.08-.13-.11-.17-.13-.2-.48-.68-.64-.85-.58-.64-1.19-1.57-1.8-1.85-.85-.4-2.54-.34-3.54-.52-1.28-.23-3.02-.75-3.97-1.67-.06-.12.21-.95.24-1.19.04-.3-.03-.85,0-1.05.15-.92,2.62-3.24,3.16-4.14-.66.57-3.33,3.38-3.42,4.03-.03.2.09.62.05.9-.08.5-.36,1.04-.31,1.57,1.36,1.07,3.33,1.54,5.03,1.82.69.12,1.88.06,2.49.3.64.25,1.36,1.27,1.97,1.98.18.21.43.49.55.65,0,0,0,0,0,0,1.79,2.98,2.83,4.52,4.93,9.29q.04.1.14.28c.07.12.15.16.16,0-.04-.32,0-.25-.06-.5Z"/>
    <path class="st6" d="M58.8,30.55c-.31.5-.69.98-1.16,1.37l1.16-1.37Z"/>
    <path class="st5" d="M70.97,60.11c-.07-.5-.15-1.01-.25-1.51-.13-.76-.26-1.54-.28-1.62-.03-.1-1.04-3.8-1.1-3.98-.01-.05-.07-.12-.11-.21,0,0-.34-.54-.35-.56-.84-1.89-1.39-3.31-2.3-5.01-.76-1.42-1.65-2.79-2.62-4.07-.08-.11-.12-.17-.12-.17-.17-.28-.94-1.17-1.42-1.76-.55-.57-.82-.72-1.59-.84-1.86-.14-3.74-.33-5.47-1.16-.37-.18-1.03-.52-1.31-.79-.02-.02.05-.42.07-.49.21-.64.34-1.21.21-1.87.23-.54.56-1.04,1-1.49l2.32-2.59v-.05c.43-.42.81-.89,1.16-1.37,0-.01,0-.04,0-.05.31-.22.54-.67.7-1.02,1.15-2.45-1.05-4.09-3.26-2.88-.8.53-1.69.86-2.58,1.17-.87.33-1.41,1.05-1.82,1.87-.74.84-1.67,1.57-2.63,2.14-1.21-.23-2.26.02-3.44.44-1.42-1.57-2.31-3.65-2.77-5.71-.23-.89-.94-1.46-1.74-1.86-2.44-1.23-5.04-2.07-7.67-2.82-4.03-1.15-8.13-2.01-12.28-2.54-.88-.11-2.5-.31-3.31-.06-.03,0-.06.03-.08.05v.05c.05.07.12.12.21.16,0,0,.14.03.21.05h.05c.68.22,1.52.36,2.16.58.06.02.13.08.21.11,3.95,1.39,7.86,4.08,10.62,7.22.33.37.97,1.48,1.28,1.67.5.31,2.68.72,3.5,1.04,1.34.52,2.86,1.33,3.97,2.25.17.14,1.15.95,1.06,1.11-.99.38-2.03,1-2.83,1.75-.19.17-.33.31-.52.54-.12.15.79-.02.79-.02,0,0-.21.42-.12.51.14.16.86-.09.86-.09,0,0-.27.63-.11.63.26,0,.48-.13.63-.15.63-.09,1.04.17,1.74.04.02.18-.08.22-.21.29-.3.17-1.36.34-1.82.5-2.46.85-4.31,1.51-5.17,4.2-.19.59-.4,2.33-.66,2.72-.33.5-1.7,1.15-2.21,1.75-.17.2-1.39,1.87-1.41,2.02-.01.09-.04.19.01.28.31.24.6-.03.92-.05-.65,1.3-.25,1.74,1,.95-.31,2.4,1.46-.17,1.63,0-1.83,3.81-4.12,7.49-7.32,10.3-.99.87-2.39,1.97-3.48,2.71-.65.45-2,1.37-2,1.37-.13.1-.09.21.04.2,0,0,2.57-.7,2.65-.72,4.62-1.2,8.06-3.38,11.27-6.8.56-.53,1.1-1.07,1.63-1.63.18-.18.34-.4.53-.58l.16-.16s.11-.06.16-.11l.47-.42s.03-.04.05-.05c.11-.16.46-.4.47-.42.09-.09.3-.26.32-.26.13-.1.41-.31.42-.32.7-.6,1.42-1.15,2.21-1.59,0,0-.53.47-.7.62-.23.22-.77.84-.83.92,0,0-.25.33-.26.37-.12.26-.26.51-.42.74-.2.35-.97,1.25-.76,1.63.32.32.69-.19,1.03-.21.16.18-.96,2.26,1.11.79v.76c.47.43,1.04-.87,1.29-1.18.7-.86,1.37-1.61,1.92-2.61.73.13,2.61-1.38,2.98-1.4.4-.02,1.14.85,2.04.67.67-.13,2.95-2.53,3.22-3.21.19-.48.14-1.02.3-1.49.1-.31.32-.62.44-.99.11-.36.62-2.58.75-2.61.39.11.76.47,1.08.73,1.58,1.29,3.46,3.42,4.57,5.14.28.43.92,1.87,1.14,2.07.27.26,2.27,1.16,2.82,1.47,1.17.66,3.19,2.16,3.58,2.48,1.18.97,2.87,2.77,3.45,3.59.1.15.86,1.66,1.03,1.47,0-.18-.07-.35-.11-.53ZM69.12,54.3c-1.67-4.2-3.74-8.37-6.51-11.86-.22-.28-.46-.56-.71-.82-.52-.51-.74-.47-1.41-.32-2.25.03-4.61-.38-6.42-1.72-.02-.13-.07-.22-.16-.28.09-.06.11-.17.08-.34.38.27,2.54,1.24,2.97,1.43l3.45.45c.6-.05.9-.06,1.39.35,1.65,1.38,2.8,3.35,3.85,5.22,1.08,2,2.1,4.03,3.06,6.08l.19.62s.07-.08.13-.13c.14.57.3,1.13.47,1.66,0,.03,0,.07,0,.11.01.03,0,.32.05.65-.12-.29-.25-.64-.42-1.09Z"/>
    <path class="st1" d="M49.32,32.55c.09.23.12.49.21.71-.02.33-1.93,1.52-2.27,1.79-.92.74-1.83,1.48-2.79,2.22-.81.62-1.6,1.37-2.43,1.92l.05-.47-.24.05c-.59,1.78-1.18,3.55-2.47,4.95-.81.87-3.37,2.63-4.57,2.2-.72-.26-.59-1.73-.51-2.31,0-.11.07-.11.16-.08,1.4-2.93,4.25-4.83,7.11-6.18l.05-.11.52-.11v-.15s-.21,0-.21,0c.04-.65.9-.6,1.33-.76.65-.24,3.19-1.18,3.59-1.52.12-.1.16-.13.14-.31-2.13.65-4.21,2.09-6.48,2,.99-.86.13-1.04-.53-1.53l.02-.07c2.45-.87,4.95-1.67,7.5-2.39.58-.19,1.15-.12,1.73.02l.08.13Z"/>
    <path class="st6" d="M61.6,51.94c-.16-.06-.73-.28-.74-.45.9-3.02,1.14-6.36.68-9.48l.15-.08c3.97,4.97,6.91,10.8,8.54,16.96l-2.26-2.53.13-.03c.3.19.57.42.81.68-1.46-2.08-3.56-3.89-5.94-4.89-.41-.17-.96-.38-1.38-.19Z"/>
    <path class="st6" d="M25.56,22.17c-1.38-.67-2.81-1.33-4.06-2.21,5.63,1.05,11.59,2.32,16.86,4.61.16.07,2.74,1.19,2.53,1.34-2.15.28-4.61.81-6.53,1.82-.33.17-1.49,1.08-1.73.96-.03-.02-.36-.51-.33-.62l.12-.02c.36.52.7.6.37-.18-1.22-2.81-4.45-4.6-7.13-5.77l-.1.07Z"/>
    <path class="st6" d="M53.48,42.98c.13-.98.39-1.95.37-2.95,2.29,1.25,4.65,2.01,7.3,1.63.55,3.16.22,6.45-.5,9.56l-.13.13c-.36-.24-.39-.66-.58-.95-.25-.4-.51-.82-.77-1.21,0-.02.01-.05.02-.07,0-.01.02-.03.03-.03.17-.07-.66-1.65-.83-1.91-1.05-1.71-3-3.4-4.83-4.11l-.08-.09Z"/>
    <path class="st4" d="M47.76,45.53c-.23.3-3.05,2.64-3.23,2.51-.59-1.39-2.09-2.8-3.36-3.63-.24-.16-1.29-.58-1.28-.77.38-.45.7-.93.98-1.45.17-.31.71-1.8.79-1.9.12-.14.19-.12.35-.1.36.04,1.8.9,2.18,1.15,1.46.94,3.09,2.37,3.77,3.98-.02.15-.14.14-.19.21Z"/>
    <path class="st4" d="M49.08,39.86c.39.43,1.57,1.93,1.51,2.46-.04.3-2.07,2.7-2.29,2.67-1.46-2.31-3.68-4.09-6.19-5.14-.05-.23,2.51-2.37,2.82-2.39,1.17-.06,3.39,1.55,4.16,2.4Z"/>
    <path class="st6" d="M41.42,33.13c-.53-.41-1.03-.99-1.59-1.39-1.96-1.43-4.4-2.24-6.74-2.77-.02-.25.17-.2.26-.26.74.34,1.54.59,2.39.76,1.95.63,4.12,1.79,5.58,3.26.08.08.21.33.09.41l.06-.1c.73.12.5-.18.2-.59-1.72-2.3-4.99-3.49-7.76-3.83-.14.04-.24.01-.29-.07l.06-.26c.93-.2,1.81-.76,2.75-1.07.61-.2,4.68-1.26,5-1.02.52,2.33,1.45,4.6,2.94,6.48l-2.84.63c-.09-.03-.09-.18-.1-.18Z"/>
    <path class="st4" d="M44.09,48.44l-3.48,2.34c-.89-1.44-2.16-2.76-3.76-3.38v-.12c.4-.61,2.08-3.23,2.81-3.19,1,.05,4.58,3.15,4.57,4.08l-.13.27Z"/>
    <path class="st1" d="M42.52,49.94c2.63-1.86,5.48-3.64,7.4-6.27l.13.03c-.71,2.15-1.36,5.6-3.17,7.11-.8.66-2.99,1.81-4.01,1.6-.39-.08-.77-.73-.93-1.09-.02-.09.03-.14.16-.15.16-.41.31-.79.46-1.13l-.04-.09Z"/>
    <path class="st1" d="M56.01,27.13l.1.05.99-.38c1.61-.42,2.78.74,2.08,2.32v.18c-.09.15-.22.33-.21.42-.41.95-1.45,1.77-2.08,2.58l-.1-.2c1.61-1.84-.85-3.64-2.62-2.53l-3.98,3.24c-.14.01-.24-.48-.28-.57l-.03-.11,3.06-2.52c-.26-.11-.36-.27-.3-.48,1.05-1.4.87-.93,2.4-1.36.17-.05.71-.5.97-.64Z"/>
    <path class="st4" d="M37.84,52.99c-.73-1.15-1.65-2.03-2.95-2.5l1.72-2.8c.49-.1,2.52,1.68,2.89,2.1.26.31.96,1.08.66,1.45l-2.31,1.76Z"/>
    <path class="st1" d="M35.19,47.32c.64-.73,1.43-1.56,2.33-1.78.07-.02.18-.09.16.05-2.96,3.79-4.49,8.45-7.9,11.91-1.38,1.4-3.09,2.8-4.74,3.87-.1-.03-.1-.1,0-.21.07-.05.26-.21.26-.21.07-.06.42-.34.74-.63,3.74-3.29,5.77-6.34,7.96-10.75.28-.57.64-1.56,1.2-2.25Z"/>
    <path class="st4" d="M50.27,36.87c.22,1.55.32,3.01.58,4.53,0,.05,0,.06.02.1.01.11-.09.19-.17.11-.21-.24-.27-.62-.45-.89-1.18-1.78-2.87-2.98-4.92-3.56l2.2-1.75c.49-.1,2.68,1.33,2.75,1.47Z"/>
    <path class="st1" d="M39.27,24.11c.66.27,2.75,1.06,3.09,1.63.22.37.46,1.79.66,2.35.53,1.52,1.46,3.13,2.5,4.34l-.08.18-.7.03c-1.32-1.43-2.09-3.31-2.71-5.14-.13-.39-.18-1.17-.35-1.49-.19-.34-2.03-1.21-2.48-1.42-4.3-1.97-8.97-3.1-13.59-4.05l-.09-.21c2.35.38,4.67.92,6.96,1.54s4.66,1.35,6.8,2.23Z"/>
    <path class="st4" d="M36.29,54.56c-.12.11-.99,1.09-1.09,1.02-.28-.88-1.24-1.69-2.16-1.79l1.67-2.94c.58-.12,2.72,1.76,2.84,2.31.08.4-.2.29-.42.53-.28.29-.55.59-.84.87Z"/>
    <path class="st1" d="M53.9,39.3c.25-.03.52.04.78.2,1.17.61,2.25,1.07,3.55,1.24.67.09,1.46.18,2.1-.02.55.04.71-.16,1.26.19,2.7,1.75,5.83,8.71,7.28,11.66,0,.01.07.16.15.33.14.3.45,1.36.49,1.72l.11,1.03-.53-1.18c-1-2.55-2.14-5.09-3.52-7.46-.54-.93-3.44-5.58-4.31-5.71-.2-.03-.56.11-.78.11-2.11,0-4.17-.29-6-1.44-.43-.27-.51-.18-.56-.67Z"/>
    <path class="st1" d="M51.9,39.46c.15.03.13,0,.19-.1.63-1.03.99-2.55,1.79-3.48l.08.08-.31.71.47-.32c.06.83-.36,1.59-.47,2.4-.07.53,0,1.21-.06,1.73-.21,1.66-.47,3.39-1.08,4.93l-.13-.13v-1.21c0-.43-.85-1.72-.78-2.46.1-1.01,1.72-3.44,1.97-4.52.02-.09.04-.17.02-.26-1.01,1.23-1.24,2.99-2.16,4.21l-.11-.9.11.03c.13-.21.25-.45.35-.68l.12-.03Z"/>
    <path class="st4" d="M53.88,32.57c.42.46.76,1.13.86,1.74l-1.19,1.51c-.63-1.29-1.84-2.23-3.19-2.69.34-.23,1.53-1.47,1.82-1.53.48-.1,1.38.63,1.69.97Z"/>
    <path class="st4" d="M34.08,54.65c.24.19.96.92.89,1.25-.03.16-1.97,2.15-2.16,2.1-.22-.21-.36-.6-.56-.81-.19-.2-1.06-.75-1.05-.88l1.63-2.23c.49.02.88.29,1.24.57Z"/>
    <path class="st1" d="M33.99,45.46c.06.14.5.69.65.75.19.09.88.14.88.22-.43.54-1.94,3.07-2.73,2.75-.01,0-.08-.17-.21-.23-.9-.38-.96-.23-1.06-1.28l.08-.24c.7-.76,1.38-1.48,2.27-2.02l.12.04Z"/>
    <path class="st4" d="M41.63,37.24l.1.13c-2.88,1.4-5.8,3.28-7.21,6.27l-.21-.03c.02-.14.04-.28.05-.42,0,0,.15-.84.26-1.11.76-1.82,1.83-3.12,3.44-3.75.51-.18,1.8-.65,2.4-.83.07-.02,1.12-.26,1.16-.26Z"/>
    <path class="st4" d="M50.4,33.5c.9.27,2.76,1.63,2.9,2.58.08.56-.93,1.83-1.11,2.42-.18-.48-1-1.06-1.16-1.42-.38-.86-.22-2.5-.69-3.42l.06-.16Z"/>
    <path class="st2" d="M33.62,28.55c.56-.16,2.05.27,2.68.46,1.45.43,3.06,1.13,4.23,2.1.29.24,1.77,1.64,1.52,2.02-.1.04-.59.03-.63,0-.02-.01-.11-.31-.24-.42-1.42-1.27-3.02-2.24-4.81-2.93-.85-.33-2.04-.5-2.77-.82-.14-.06-.2-.11-.25-.25.11-.08.08-.1.26-.16Z"/>
    <path class="st1" d="M41.79,51.63c.09.17.55.86.66.95.22.17.69.12.71.24-.11.46-1.34,2.26-1.71,2.29-1.09-.24-1.23-.15-1.71-1.21l-.05-.11,1.98-2.18.12.02Z"/>
    <path class="st4" d="M30.92,56.74c.49-.12,1.55,1.11,1.64,1.59l-2.38,1.72c-.31-.59-.62-1.08-1.19-1.44.37-.23,1.67-1.8,1.93-1.86Z"/>
    <path class="st2" d="M25.56,22.17l-.02-.26c.37.19.77.31,1.13.5,2.4,1.24,5.5,3.1,6.36,5.81.1.33.03.16-.22.38-.08-.01-3.5-3.67-3.61-3.8-.03-.03-.62-.52-.63-.53,0,0-2.69-1.97-2.95-2.11-.01,0-.04,0-.05,0Z"/>
    <path class="st4" d="M55.89,32.96c-.05.08-.86,1.01-.93.97-.27-1.28-1.23-2.04-2.26-2.71.71-.66.83-1.09,1.84-.64.79.35,1.94,1.49,1.35,2.38Z"/>
    <path class="st2" d="M53.48,42.98c.2-.06.62.16.81.27,2.39,1.42,4.32,3.24,5.14,5.98l-.26-.03s-.46-.62-.47-.63l-.21-.32s-.47-.63-.47-.63c-.23-.29-.84-1.05-.84-1.05-.82-.9-2.07-2.08-3.06-2.79-.08-.07-.25-.2-.26-.21,0,0-.15-.1-.16-.11-.09-.06-.18-.11-.26-.16,0-.01,0-.04,0-.05-.01-.09.05-.25.05-.26Z"/>
    <path class="st4" d="M40,34.87c-.11-.01-.21-.01-.32-.05-.29-.45,2.64-1.34,2.89-1.41.9-.24,2.09-.3,2.92-.55.45-.14.9-.5,1.46-.65.75-.19,1.55-.29,2.28.02.07.06.05.23.09.32-.34-.08-.79-.17-1.13-.16-.7,0-4.79,1.39-5.83,1.7-.49.14-1.97.82-2.36.78Z"/>
    <path class="st2" d="M61.6,51.94c-.02-.2,0-.13.13-.16,1.13-.27,4.29,1.94,5.17,2.74.33.31,2.37,2.47,2.22,2.74l-.2.15c-.58-.47-.88-1.23-4.4-3.67-1.1-.76-2.82-1.77-2.91-1.8Z"/>
    <path class="st4" d="M26.72,60.63c-.05-.12,1.85-1.72,1.98-1.74.46-.07,1.03.88,1.18,1.24.02.37-2.01,1.09-2.35,1.29l-.81-.79Z"/>
    <path class="st4" d="M56.33,32.18c-.25-1.01-1.12-1.71-2.02-2.11v-.11c1.67-1.25,3.84.69,2.02,2.21Z"/>
    <polygon class="st4" points="50.16 36.4 47.9 35.11 49.57 33.77 50.16 36.4"/>
    <path class="st4" d="M23.45,62.9l2.93-2.15c.2-.04.99.67.61.93-.31.21-2.14.84-2.6.99-.31.09-.63.17-.95.24Z"/>
    <path class="st4" d="M55.46,39.58c3.18,1.13,4.16.87,4.87,1.14.02.22,0,.13-.13.16-.72.17-2.31-.03-3.04-.22-1.12-.29-2.16-.98-3.25-1.36,0-.09-.09-.46.08-.47.46.33.95.53,1.48.75Z"/>
    <path class="st4" d="M33.99,45.46l-1.1.77-1.38,1.44c-.17-1.75,1.17-1.75,2.14-2.84l.26.04c.08.08.04.51.08.58Z"/>
    <path class="st4" d="M41.79,51.63l-2.05,2.27s-.13-.04-.16-.19c-.17-.82,1.35-2.07,1.93-2.55l.15.05c.1.08.11.37.13.42Z"/>
    <path class="st4" d="M52.64,29.13c.14.22.09.34.42.32v.2s-3.16,2.59-3.16,2.59c-.01-.02-.35-.06-.18-.42.06-.13,1.87-1.37,2.19-1.71.28-.3.49-.65.74-.98Z"/>
    <path class="st4" d="M59.17,29.29c-.24-.06.09-.66.11-.81.1-1.13-.68-1.75-1.77-1.66-.54.04-1.05.41-1.39.45-.17.02-.1.02-.11-.14.41-.21,1.09-.51,1.48-.58,1.67-.31,2.54,1.25,1.69,2.74Z"/>
    <path class="st4" d="M42.52,49.94c.15-.03.12.08.1.18-.09.39-.36.71-.41,1.12l-.28.07c-.02-.05-.03-.1-.05-.16-.05-.14-.11-.32-.15-.42-.11-.28.03-.27.15-.42.16-.15.46-.25.63-.37Z"/>
    <path class="st0" d="M39.82,54.9l.59.38c0,.13-.67.71-.86.72-.22-.09.12-1.05.27-1.1Z"/>
    <path class="st0" d="M38.63,54.94c-.07-.07.5-1.24.74-1.14l.24.56-.98.58Z"/>
    <path class="st0" d="M39.52,36.45c-.1-.09,1.41-1.88,1.08-.47l-1.08.47Z"/>
    <path class="st0" d="M39.98,35.2l.04.2c-.22.52-.63.55-1.14.58-.07-.06.78-1.07,1.09-.78Z"/>
    <path class="st0" d="M31.2,47.36c.26.7.03.77-.81.92l.09-.19c.19-.27.32-.7.71-.74Z"/>
    <path class="st0" d="M31.78,48.99c.03.07.07.16-.03.28-.09.12-.28.18-.4.22-.05.02-.21.04-.24.02l.2-.83c.09-.06.38.19.47.32Z"/>
    <path class="st1" d="M25.03,61.16c0,.07.01.15,0,.21-.04.23-1.24.96-1.53,1.03.43-.51,1.02-.83,1.53-1.24Z"/>
    <path class="st0" d="M32.36,50.04l.05-.79c.83.05.61.7-.05.79Z"/>
    <path class="st0" d="M40.73,56.16l.18-.8.43.11c.05.09-.5.81-.61.69Z"/>
    <path class="st0" d="M39.41,35.13l-.94.43c.08-.3.52-.44.75-.59h.14s.05.16.05.16Z"/>
    <path class="st4" d="M51.11,37.8c0,.13,0,.26,0,.39-.02.52.15,1.11.21,1.63,0,.1,0,.21,0,.32,0,.03.06.34.1.37.09-.32.39-.76.47-1.05.19-.62-.22-1.45-.79-1.66Z"/>
    <path class="st1" d="M52.22,46.51v-.76s.18-.09.18-.09c.16.07.05.81-.18.84Z"/>
    <path class="st4" d="M59.11,29.39c.05.16-.11.23-.15.32-.32-.02.14-.3.15-.32Z"/>
  </g>
</svg>