<?xml version="1.0" encoding="UTF-8"?>
<svg id="Layer_1" xmlns="http://www.w3.org/2000/svg" version="1.1" viewBox="0 0 100 100">
  <!-- Generator: Adobe Illustrator 29.1.0, SVG Export Plug-In . SVG Version: 2.1.0 Build 142)  -->
  <defs>
    <style>
      .st0 {
        fill: #fff;
      }

      .st1 {
        opacity: .35;
      }
    </style>
  </defs>
  <path class="st0" d="M73.28,36.05v.02c-.73-5.37-5.41-9.61-10.96-10.43-.94-.14-4.49-.65-12.7-.65h-.06c-8.23,0-9.99.51-10.93.65-5.4.8-10.33,4.6-11.52,10.04-.58,2.68-.64,5.65-.53,8.37.15,3.91.18,7.8.54,11.69.25,2.59.68,5.15,1.28,7.67,1.14,4.66,5.74,8.54,10.25,10.12,4.83,1.65,10.02,1.93,14.99.79.55-.13,1.09-.28,1.62-.45,1.21-.38,2.63-.82,3.67-1.57.01,0,.02-.02.04-.04,0-.02.01-.04.01-.05v-3.77s0-.04,0-.05c0-.02-.02-.03-.03-.04-.02-.01-.03-.02-.05-.02h-.05c-3.19.76-6.45,1.14-9.73,1.14-5.64,0-7.16-2.68-7.59-3.79-.35-.96-.57-1.97-.66-2.99,0-.02,0-.04,0-.05,0-.01.02-.03.03-.04.02-.01.03-.02.05-.02h.05c3.14.76,6.35,1.14,9.57,1.14.78,0,1.55,0,2.33-.02,3.24-.09,6.66-.26,9.85-.88.08-.02.16-.03.23-.05,5.03-.97,9.82-4,10.31-11.68.02-.3.07-3.17.07-3.48,0-1.07.35-7.56-.05-11.55ZM65.31,55.45h-5.29v-12.96c0-2.73-1.14-4.12-3.45-4.12-2.54,0-3.82,1.65-3.82,4.9v7.09h-5.26v-7.09c0-3.25-1.28-4.9-3.82-4.9-2.3,0-3.45,1.39-3.45,4.12v12.96h-5.29v-13.35c0-2.73.7-4.9,2.09-6.5,1.44-1.6,3.32-2.43,5.66-2.43,2.71,0,4.76,1.04,6.12,3.12l1.32,2.21,1.32-2.21c1.37-2.08,3.41-3.12,6.11-3.12,2.34,0,4.22.83,5.66,2.43,1.39,1.61,2.09,3.77,2.09,6.5v13.35Z"/>
  <g class="st1">
    <path class="st0" d="M50,4c25.36,0,46,20.64,46,46s-20.64,46-46,46S4,75.36,4,50,24.64,4,50,4M50,0C22.39,0,0,22.39,0,50s22.39,50,50,50,50-22.39,50-50S77.61,0,50,0h0Z"/>
  </g>
</svg>