<?xml version="1.0" encoding="UTF-8"?>
<svg id="Layer_1" xmlns="http://www.w3.org/2000/svg" xmlns:xlink="http://www.w3.org/1999/xlink" version="1.1" viewBox="0 0 100 100">
  <!-- Generator: Adobe Illustrator 29.1.0, SVG Export Plug-In . SVG Version: 2.1.0 Build 142)  -->
  <defs>
    <style>
      .st0 {
        fill: url(#linear-gradient);
      }

      .st1 {
        fill: #fff;
      }

      .st2 {
        opacity: .1;
      }
    </style>
    <linearGradient id="linear-gradient" x1="48" y1="940.5" x2="48" y2="1005.5" gradientTransform="translate(2 -923)" gradientUnits="userSpaceOnUse">
      <stop offset="0" stop-color="#6364ff"/>
      <stop offset="1" stop-color="#563acc"/>
    </linearGradient>
  </defs>
  <path class="st0" d="M80.25,31.89c-.94-6.98-7.03-12.49-14.24-13.55-1.22-.18-5.83-.84-16.51-.84h-.08c-10.69,0-12.99.66-14.2.84-7.01,1.03-13.42,5.98-14.98,13.05-.75,3.48-.83,7.34-.69,10.88.2,5.08.23,10.14.7,15.2.32,3.36.88,6.69,1.66,9.97,1.48,6.06,7.46,11.1,13.32,13.15,6.27,2.15,13.02,2.5,19.49,1.03.71-.16,1.41-.36,2.11-.58,1.57-.5,3.41-1.06,4.76-2.04.02-.01.03-.03.05-.05s.02-.05.02-.07v-4.9s0-.05-.01-.07c0-.02-.03-.04-.04-.05-.02-.01-.04-.02-.06-.03h-.07c-4.14.99-8.39,1.48-12.64,1.48-7.33,0-9.3-3.48-9.86-4.93-.46-1.25-.74-2.55-.86-3.88,0-.02,0-.05.01-.07,0-.02.02-.04.04-.05.02-.01.04-.03.06-.03h.07c4.08.98,8.25,1.48,12.44,1.48,1.01,0,2.02,0,3.02-.03,4.21-.12,8.65-.33,12.8-1.14.1-.02.21-.04.29-.07,6.54-1.25,12.76-5.19,13.4-15.18.03-.39.08-4.11.08-4.52,0-1.38.45-9.83-.07-15.02v.02Z"/>
  <path class="st1" d="M69.9,39.74v17.35h-6.88v-16.84c0-3.54-1.48-5.36-4.49-5.36-3.3,0-4.96,2.14-4.96,6.36v9.22h-6.83v-9.22c0-4.23-1.66-6.36-4.96-6.36-2.99,0-4.48,1.81-4.48,5.36v16.84h-6.87v-17.35c0-3.54.9-6.36,2.72-8.45,1.87-2.08,4.32-3.15,7.36-3.15,3.52,0,6.18,1.35,7.95,4.06l1.71,2.87,1.72-2.87c1.77-2.7,4.43-4.06,7.94-4.06,3.04,0,5.49,1.07,7.36,3.15,1.81,2.09,2.71,4.9,2.71,8.45Z"/>
  <g class="st2">
    <path d="M50,.75c27.16,0,49.25,22.09,49.25,49.25s-22.09,49.25-49.25,49.25S.75,77.16.75,50,22.84.75,50,.75M50,0C22.39,0,0,22.39,0,50s22.39,50,50,50,50-22.39,50-50S77.61,0,50,0h0Z"/>
  </g>
</svg>