<?xml version="1.0" encoding="UTF-8"?>
<svg id="Layer_1" xmlns="http://www.w3.org/2000/svg" version="1.1" viewBox="0 0 100 100">
  <!-- Generator: Adobe Illustrator 29.1.0, SVG Export Plug-In . SVG Version: 2.1.0 Build 142)  -->
  <defs>
    <style>
      .st0 {
        fill: #fff;
      }

      .st1 {
        opacity: .35;
      }
    </style>
  </defs>
  <path class="st0" d="M71.35,37.46c-.11-1.13-.49-2.13-1.2-3.03-.63-.79-1.44-1.35-2.2-1.98-.38-.32-1.39-1.17-1.52-1.64-.15-.58.08-1.17.61-1.37.8-.27,2.13-.26,2.9-.21.65.05,1.33-.18,1.36-.44.03-.27-.37-.66-.88-.78-.41-.1-1.03-.24-1.41-.49-.67-.44-1.35-1.28-2.29-1.46-1.33-.26-2.25.24-2.69,1.38-.68,1.63-.24,3.72,1.2,5.25.65.7,1.41,1.28,2.13,1.9.54.46,1.01.96,1.46,1.52,1.21,1.51-.07,4.29-.37,4.6-1.07,1.11-2,1.32-3.85,1.24-1.82-.07-6.53-2.51-9.02-2.58-6.17-.19-10.46,2.66-11.9,3.4-2.17,1.11-5.26,1.18-5.35,1.21-1.39.11-4.29.22-5.72.71-2.02.56-3.11,1.49-3.85,3.56-.23.89-.27,1.7.05,2.19.7,1.07,2.62,1.96,3.48,2.46.44.25,1.33-.06,1.5-.18.96-.65,1.82-1.18,2.97-1.34.24-.04,1.87-.32,2.68.27.6.43,1.1.7,1.77,1,1.22.56,3.92,1.26,3.97,1.27.36.11.82.28.82.61,0,.46-4.29,4.05-4.52,4.14-1.08.44-1.69,1.15-1.89,2.17-.06.34-.2.68-.39.95-.7,1.01-3.78,5.39-4.6,6.58-.39.57-.79.84-1.34.94-.8.13-1.39.15-1.73.72-.22.36-.08,1.07.06,1.53.15.53-.27,1.18-.31,1.25-.38.75-.54,1.46-.49,2.18.02.3.04.98.52,1,.49.02.62-.29.68-.4.07-.14.34-.72.42-.86.32-.58,1.51-1.84,1.64-1.98.43-.47,6.8-9.25,6.8-9.25.35-.46.71-.93,1.31-1.16.82-.32,1.37-.98,1.53-1.84.04-.18,2.58-2.14,3.66-2.96.39-.3,2.79-1.27,2.83-1.25,0,.02-2.2,3.32-2.87,5.08-.11.28-.29,1.24-.08,1.72.31.75.96,1.07,1.71.84.23-.06.44-.18.63-.29.08-.05.18-.1.27-.14s.18-.08.26-.13c.21-.11.4-.21.61-.27.73-.25,1.47-.47,2.21-.7l1.5-.46c1.05-.33,2.09-.65,3.14-.97.23-.06.45-.15.74-.14.15,0,.33.06.39.3,0,0,.12.73.56,1.01.23.15.7.26,1.06.25.31-.01.7.08.92.25l.27.23c.2.16.44.25.59.3.17.05.48.05.65-.14.19-.2.13-.54.1-.64-.04-.14-.12-.25-.18-.34l-.15-.25c-.15-.25-.3-.49-.46-.73-.44-.67-.88-1.34-1.32-2-.46-.69-1.18-.96-2.13-.82-.36.06-8.34,2.53-8.4,2.54.44-.79,2.98-4.32,3.7-4.77.54-.32.75-.61,1.72-.77,1.87-.32,5.96-1.27,6.98-2,1.98-1.43,2.13-4.67,2.1-5.32-.04-.65.17-1.09.74-1.39.28-.14,3.32-1.82,4.8-4.29v-.03c.87-1.46,1.32-3.01,1.15-4.72Z"/>
  <g class="st1">
    <path class="st0" d="M50,4c25.36,0,46,20.64,46,46s-20.64,46-46,46S4,75.36,4,50,24.64,4,50,4M50,0C22.39,0,0,22.39,0,50s22.39,50,50,50,50-22.39,50-50S77.61,0,50,0h0Z"/>
  </g>
</svg>