<?xml version="1.0" encoding="UTF-8"?>
<svg id="Layer_1" xmlns="http://www.w3.org/2000/svg" version="1.1" viewBox="0 0 100 100">
  <!-- Generator: Adobe Illustrator 29.1.0, SVG Export Plug-In . SVG Version: 2.1.0 Build 142)  -->
  <defs>
    <style>
      .st0 {
        opacity: .1;
      }

      .st1 {
        fill: #8d45dd;
      }
    </style>
  </defs>
  <path class="st1" d="M50,17.5c-17.95,0-32.5,14.55-32.5,32.5s14.55,32.5,32.5,32.5,32.5-14.55,32.5-32.5-14.55-32.5-32.5-32.5ZM68.66,42.54c-1.37,2.28-4.17,3.84-4.43,3.96-.53.28-.71.68-.68,1.29.03.6-.11,3.59-1.94,4.91-.94.68-4.71,1.55-6.44,1.85-.89.15-1.09.42-1.59.71-.66.41-3.02,3.67-3.42,4.4.05,0,7.42-2.29,7.75-2.35.88-.13,1.54.12,1.97.75.41.61.81,1.23,1.22,1.85.14.22.29.44.42.67l.14.23c.05.08.12.19.16.32.03.09.08.4-.09.59-.16.18-.45.18-.6.13-.14-.04-.36-.12-.55-.27l-.25-.21c-.2-.16-.56-.25-.85-.23-.33.01-.77-.09-.98-.23-.41-.27-.52-.93-.52-.94-.05-.22-.21-.28-.36-.28-.27,0-.47.07-.68.13-.97.29-1.93.59-2.9.9l-1.38.43c-.68.21-1.36.42-2.04.65-.19.06-.36.15-.56.25-.08.04-.16.08-.24.12s-.17.08-.25.13c-.18.1-.37.21-.59.27-.69.21-1.29-.09-1.58-.78-.19-.44-.02-1.33.08-1.59.62-1.62,2.65-4.67,2.65-4.69-.03-.01-2.25.88-2.61,1.16-1,.76-3.35,2.57-3.38,2.74-.15.8-.65,1.4-1.41,1.7-.55.21-.88.65-1.21,1.07,0,0-5.88,8.11-6.28,8.54-.12.13-1.22,1.29-1.51,1.83-.07.13-.32.66-.38.79-.05.1-.18.39-.62.37-.45-.02-.46-.65-.48-.92-.05-.67.1-1.33.45-2.01.03-.06.43-.67.29-1.16-.13-.42-.26-1.08-.06-1.41.31-.53.86-.55,1.6-.66.51-.08.88-.34,1.24-.86.75-1.1,3.6-5.14,4.24-6.08.18-.25.31-.57.36-.88.19-.94.75-1.6,1.75-2,.21-.08,4.17-3.39,4.17-3.82,0-.31-.43-.47-.76-.57-.05-.01-2.54-.66-3.67-1.18-.62-.28-1.08-.53-1.63-.92-.75-.55-2.25-.29-2.47-.25-1.06.15-1.85.63-2.74,1.24-.16.11-.98.4-1.38.17-.8-.46-2.57-1.28-3.22-2.27-.3-.46-.26-1.2-.05-2.02.68-1.91,1.69-2.77,3.56-3.28,1.33-.46,4-.56,5.28-.66.08-.03,2.94-.09,4.94-1.12,1.33-.68,5.29-3.31,10.99-3.14,2.3.07,6.65,2.32,8.33,2.39,1.71.07,2.57-.12,3.56-1.14.28-.29,1.46-2.85.34-4.25-.42-.52-.85-.98-1.35-1.4-.67-.57-1.36-1.11-1.97-1.76-1.33-1.41-1.74-3.34-1.11-4.85.4-1.05,1.25-1.51,2.48-1.27.86.17,1.5.94,2.11,1.35.34.23.92.36,1.3.46.47.11.84.47.81.72s-.65.46-1.25.41c-.71-.05-1.94-.05-2.68.19-.49.18-.71.72-.57,1.26.12.44,1.05,1.22,1.4,1.51.7.58,1.45,1.1,2.03,1.83.66.83,1,1.76,1.1,2.79.16,1.59-.26,3.01-1.07,4.36v.03Z"/>
  <g class="st0">
    <path d="M50,.75c27.16,0,49.25,22.09,49.25,49.25s-22.09,49.25-49.25,49.25S.75,77.16.75,50,22.84.75,50,.75M50,0C22.39,0,0,22.39,0,50s22.39,50,50,50,50-22.39,50-50S77.61,0,50,0h0Z"/>
  </g>
</svg>